<?xml version="1.0"?>
<svg xmlns="http://www.w3.org/2000/svg" xmlns:xlink="http://www.w3.org/1999/xlink" xmlns:svgjs="http://svgjs.com/svgjs" version="1.1" width="512" height="512" x="0" y="0" viewBox="0 0 24 24" style="enable-background:new 0 0 512 512" xml:space="preserve"><g><path xmlns="http://www.w3.org/2000/svg" d="m19 2v-2h-2v2h-2v-2h-2v2h-2v-2h-2v2h-2v-2h-2v2h-2v19a3 3 0 0 0 3 3h12a3 3 0 0 0 3-3v-19zm0 19a1 1 0 0 1 -1 1h-12a1 1 0 0 1 -1-1v-17h14zm-2-12h-10v-2h10zm0 4h-10v-2h10zm-4 4h-6v-2h6z" fill="#ffffff" data-original="#000000"/></g></svg>
